<svg width="48" height="48" viewBox="0 0 48 48" fill="none" xmlns="http://www.w3.org/2000/svg"><path d="M36.883 44H11.1127C7.19199 44 4 40.808 4 36.883V11.1127C4 7.19199 7.19199 4 11.1127 4H36.883c3.9207.0 7.1127 3.19199 7.1127 7.1127V36.883C44 40.808 40.808 44 36.883 44zM11.1127 4.30258c-3.75451.0-6.81012 3.05561-6.81012 6.81012V36.883c0 3.7588 3.05561 6.8144 6.81442 6.8144H36.8873C40.6461 43.6974 43.7017 40.6418 43.7017 36.883V11.1127C43.7017 7.35393 40.6461 4.29832 36.8873 4.29832H11.1127V4.30258z" fill="#333"/><path fill-rule="evenodd" clip-rule="evenodd" d="M4 36.8874l40-2.0925V11.1128L4 13.2053V36.8874zM24.9629 18.5535S25.8962 19.2311 25.9985 19.2993C26.6647 19.7579 27.5459 20.364 28.9153 20.9932 27.6556 21.3788 26.2061 21.761 24.5332 22.1291v2.3141c3.1913-.6858 5.6921-1.4636 7.6668-2.2512C34.1509 22.7558 36.6718 23.2709 39.981 23.6377V21.3236C38.2667 21.1249 36.788 20.8858 35.5072 20.6222c1.849-1.0508 2.911-2.0162 3.6137-2.6823v-.3535L39.1251 17.5862V15.417L39.1209 15.4172V15.417L38.596 15.4447l-8.9742.4694L27.2983 14.9524l-2.3354 3.6011zM28.5105 18.1415 35.9854 17.7504C35.1654 18.3491 34.0068 19.0546 32.2705 19.7895 30.5399 19.2368 29.3679 18.6532 28.5105 18.1415zM16.7119 16.0478 19.1709 15.9199C19.1087 20.541 19.0227 23.3079 18.3506 25.4774L23.4462 25.2102v2.1692l-6.1073.3185c-.9756 1.5689-2.4925 3.0465-4.8674 5.1408L8.59766 33.0433C8.74154 32.921 8.87935 32.8017 9.01365 32.6855L9.01378 32.6854 9.08775 32.6214c2.38825-2.07 4.02965-3.4939 5.14225-4.7613l-6.22805.3248v-2.165L15.7202 25.6153C16.5809 23.6457 16.6485 20.8981 16.7119 16.0478zm-1.8102 1.419v2.4206l-5.47201-.4986V16.9724L14.9017 17.4668zM9.42969 21.0637v2.4206l5.47201.4987V21.5623l-5.47201-.4986zM30.9824 26.9861 24.5332 27.3241V25.1549L30.9824 24.8169V23.5822l2.5187-.1279v1.2306L39.9817 24.3452v2.1692L33.5011 26.8541v4.8892L30.9824 31.8754V26.9861zm-9.9222 1.6037L18.0898 28.7433l2.3866 3.682L23.4468 32.2719l-2.3866-3.6821zm13.5863-.712L37.6126 27.7244l2.3865 3.682L37.033 31.5599l-2.3865-3.6821zM29.8979 28.125 26.9275 28.2827 24.541 32.2119 27.5114 32.0585l2.3865-3.9335z" fill="#333"/></svg>